<svg width="200" height="200" viewBox="0 0 200 200" fill="none" xmlns="http://www.w3.org/2000/svg">
<path d="M193.086 31.5625H88.7891C85.3906 31.5625 82.6562 28.8281 82.6562 25.4297V22.9297C82.6562 19.5313 79.9219 16.7969 76.5234 16.7969H6.91406C3.51563 16.8359 0.78125 19.5703 0.78125 22.9297V177.031C0.78125 180.43 3.51563 183.164 6.91406 183.164H193.125C196.523 183.164 199.258 180.43 199.258 177.031V37.6953C199.219 34.2969 196.484 31.5625 193.086 31.5625Z" fill="#788D9A"/>
<path d="M6.91406 19.2578H76.5625C79.9609 19.2578 82.6953 21.9922 82.6953 25.3906V22.9297C82.6953 19.5313 79.9609 16.7969 76.5625 16.7969H6.91406C3.51563 16.8359 0.78125 19.5703 0.78125 22.9297V25.3906C0.78125 21.9922 3.51563 19.2578 6.91406 19.2578Z" fill="#8FA1AA"/>
<path d="M193.086 31.5625H88.7891C85.3906 31.5625 82.6562 28.8281 82.6562 25.4297V27.8906C82.6562 31.2891 85.3906 34.0234 88.7891 34.0234H193.125C196.523 34.0234 199.258 36.7578 199.258 40.1563V37.6953C199.219 34.2969 196.484 31.5625 193.086 31.5625Z" fill="#8FA1AA"/>
<path d="M193.086 23.9844H123.477C120.078 23.9844 117.344 26.7187 117.344 30.1172V31.9922C117.344 35.3906 114.609 38.125 111.211 38.125H6.91406C3.51563 38.125 0.78125 40.8594 0.78125 44.2187V177.031C0.78125 180.43 3.51563 183.164 6.91406 183.164H193.125C196.523 183.164 199.258 180.43 199.258 177.031V30.1172C199.219 26.7187 196.484 23.9844 193.086 23.9844Z" fill="#DBDFE0"/>
<path d="M193.086 23.9844H123.477C120.078 23.9844 117.344 26.7187 117.344 30.1172V31.9922C117.344 35.3906 114.609 38.125 111.211 38.125H6.91406C3.51563 38.125 0.78125 40.8594 0.78125 44.2187V47.0703C0.78125 43.6719 3.51563 40.9375 6.91406 40.9375H111.25C114.648 40.9375 117.383 38.2031 117.383 34.8047V32.9297C117.383 29.5313 120.117 26.7969 123.516 26.7969H193.164C196.562 26.7969 199.297 29.5313 199.297 32.9297V30.0781C199.219 26.7187 196.484 23.9844 193.086 23.9844Z" fill="#EAEAEA"/>
</svg>
