<svg width="351" height="142" viewBox="0 0 351 142" fill="none" xmlns="http://www.w3.org/2000/svg">
<path d="M73.7477 67.9596C76.5483 52.6238 77.1298 36.4022 76.1277 26.8554C77.0672 26.6943 77.9977 26.5333 78.9193 26.3633C81.1114 35.7759 82.0956 52.078 81.344 67.9596H73.7477Z" fill="#CC9966"/>
<path d="M79.4561 67.9596H81.344C82.0956 52.078 81.1114 35.7759 78.9193 26.3633C78.3109 26.4706 77.7114 26.578 77.103 26.6854C79.2414 36.1428 80.1988 52.257 79.4561 67.9596Z" fill="#C48A57"/>
<path d="M63.7805 34.8074C63.8968 36.5343 64.6395 38.0195 66.0263 38.8964C66.5453 37.259 67.1 36.0064 67.7531 34.8253C67.9768 34.4495 68.1916 34.0916 68.4242 33.7427C67.9768 33.5995 67.4758 33.5369 66.921 33.5638C67.6368 33.1969 68.3526 32.9643 69.0416 32.8748H69.0505C69.3458 32.4543 69.6589 32.0695 69.99 31.6938C70.6253 30.978 71.3321 30.289 72.1284 29.6538C71.5647 29.3585 70.8847 29.2153 70.1153 29.2511C71.3321 28.6517 72.5668 28.4011 73.6763 28.5532C74.741 27.8822 75.9847 27.2648 77.6758 26.5848L74.6068 25.4574H74.5979C73.5779 25.3232 72.4953 25.3769 71.4395 25.6453C70.2763 25.8959 69.2205 26.4238 68.2005 27.0232C67.2342 27.6764 66.3395 28.4459 65.6684 29.3227C64.2995 31.0585 63.6732 33.0806 63.7805 34.8074Z" fill="#75E24D"/>
<path d="M64.8978 37.1606C66.061 35.8722 66.6246 34.199 66.6873 32.4811C66.7231 31.5864 66.6873 30.6648 66.6336 29.7701C66.6068 29.3227 66.5441 28.8932 66.4189 28.4906C66.9557 27.9538 67.5641 27.4616 68.2083 27.0232C69.2283 26.4238 70.2841 25.8959 71.4473 25.6453C72.5031 25.3769 73.5857 25.3232 74.6057 25.4574H74.6146L77.6836 26.5848C75.9925 27.2648 74.7489 27.8822 73.6841 28.5532C72.5746 28.4011 71.3399 28.6517 70.1231 29.2511C70.8925 29.2153 71.5725 29.3585 72.1362 29.6538C71.3399 30.289 70.6331 30.978 69.9978 31.6938C69.6668 32.0695 69.3536 32.4543 69.0583 32.8748H69.0494C68.3604 32.9643 67.6446 33.1969 66.9289 33.5638C67.4836 33.5369 67.9846 33.5995 68.432 33.7427C68.1994 34.0916 67.9846 34.4495 67.761 34.8253C67.1078 36.0064 66.5531 37.259 66.0341 38.8964C65.4346 38.5206 64.9604 38.0195 64.6025 37.438C64.692 37.3395 64.8083 37.259 64.8978 37.1606Z" fill="#62D333"/>
<path d="M60.7385 27.4082C62.2685 26.6119 63.548 26.1287 64.8454 25.7619C65.2659 25.6456 65.6685 25.5472 66.0801 25.4666C65.8654 25.0461 65.5522 24.6435 65.1496 24.2677C65.9101 24.5182 66.5812 24.8582 67.1359 25.2877H67.1448C67.6369 25.2072 68.129 25.1535 68.639 25.1177C69.5964 25.0551 70.5896 25.073 71.5917 25.1982C71.4038 24.5809 71.028 23.9993 70.4554 23.4803C71.7438 23.9098 72.7996 24.6077 73.4796 25.5024C74.6964 25.7619 76.2264 25.9677 77.8906 26.6745C77.5775 24.7687 75.949 23.0688 73.9359 21.8609C72.9427 21.2077 71.8154 20.8409 70.6701 20.5366C69.5338 20.3219 68.3527 20.2324 67.2612 20.3845C65.0601 20.644 63.1901 21.6282 62.0538 22.9166C60.8996 24.2319 60.3806 25.8066 60.7385 27.4082Z" fill="#75E24D"/>
<path d="M66.6628 22.7999C67.316 22.0662 67.9333 21.2609 68.2197 20.3304C69.0249 20.3125 69.857 20.402 70.6623 20.5541C71.8075 20.8493 72.9349 21.2251 73.9281 21.8783C75.9412 23.0772 77.5697 24.7772 77.8828 26.692C76.2186 25.9851 74.6886 25.7883 73.4718 25.5199C72.7918 24.6251 71.736 23.9272 70.4475 23.4978C71.0202 24.0167 71.4049 24.5983 71.5839 25.2157C70.5818 25.0993 69.5886 25.0725 68.6312 25.1351C68.1302 25.1709 67.6381 25.2157 67.137 25.3051H67.1281C66.6002 24.9025 65.956 24.5804 65.2491 24.3299C65.7412 23.8288 66.2065 23.3099 66.6628 22.7999Z" fill="#62D333"/>
<path d="M89.2977 38.8879C88.7788 37.2505 88.2151 35.9979 87.562 34.8257C87.3472 34.45 87.1325 34.0921 86.8998 33.7431C87.3472 33.591 87.8483 33.5284 88.403 33.5552C87.6872 33.1973 86.9714 32.9647 86.2735 32.8663L86.2646 32.8573C85.9783 32.4457 85.6562 32.07 85.3251 31.6852C84.6988 30.9605 83.9741 30.2805 83.1867 29.6542C83.7504 29.35 84.4304 29.2068 85.2088 29.2515C83.992 28.6431 82.7572 28.3926 81.6388 28.5447C80.592 27.8647 79.3304 27.2652 77.6572 26.5852C79.232 25.4579 81.6209 25.0731 83.8846 25.6457C85.0477 25.8873 86.1125 26.4242 87.1325 27.0147C88.0898 27.6679 88.9846 28.4373 89.6556 29.3142C91.0246 31.05 91.6509 33.0721 91.5525 34.79C91.4272 36.5347 90.6756 38.02 89.2977 38.8879Z" fill="#75E24D"/>
<path d="M83.8775 25.646C85.0406 25.8876 86.1054 26.4244 87.1254 27.015C88.0827 27.6681 88.9775 28.4376 89.6485 29.3144C90.6417 30.585 91.2501 31.9986 91.4648 33.3408C90.5075 32.8039 89.4338 32.5086 88.4048 32.1686C87.3133 31.8108 86.2306 31.5065 85.0943 31.426C84.5217 30.7997 83.8954 30.2002 83.1975 29.6455C83.7612 29.3413 84.4412 29.1981 85.2196 29.2429C84.0027 28.6344 82.768 28.3839 81.6496 28.536C80.6027 27.856 79.3412 27.2565 77.668 26.5765C79.2248 25.4581 81.6138 25.0734 83.8775 25.646Z" fill="#62D333"/>
<path d="M77.6847 26.5686C79.331 25.8797 80.6373 25.4234 81.8542 25.1549C82.5342 24.2602 83.59 23.5623 84.8873 23.1328C84.3058 23.6428 83.921 24.2334 83.7421 24.8418C84.7531 24.7165 85.7463 24.6986 86.6947 24.7613C87.1958 24.797 87.6968 24.8418 88.1889 24.9223C88.7437 24.5018 89.4237 24.1618 90.1842 23.9023C89.7726 24.2781 89.4595 24.6807 89.2537 25.1012C89.6563 25.1818 90.0679 25.2712 90.4884 25.3876C91.7858 25.7544 93.0652 26.2465 94.5952 27.0339C94.9531 25.4412 94.4342 23.8665 93.2889 22.5602C92.1437 21.2628 90.2737 20.2876 88.0726 20.0191C86.99 19.876 85.8 19.9655 84.6637 20.1712C83.5184 20.4755 82.3821 20.8513 81.3889 21.4955C80.3152 22.1397 79.3937 23.0076 78.7316 23.9649" fill="#75E24D"/>
<path d="M78.7315 23.9904C79.3936 23.0241 80.3062 22.1652 81.3889 21.5209C82.382 20.8767 83.5183 20.5009 84.6636 20.1967C85.7999 19.982 86.981 19.9015 88.0726 20.0446C89.871 20.2683 91.4457 20.9573 92.582 21.9146C90.3005 22.4067 88.1262 23.2925 86.3368 24.7688C85.4957 24.733 84.6278 24.742 83.742 24.8583C83.921 24.2409 84.3057 23.6594 84.8873 23.1494C83.5899 23.5699 82.5431 24.2767 81.8541 25.1715C80.6462 25.4399 79.331 25.8962 77.6847 26.5852L78.7315 23.9904Z" fill="#62D333"/>
<path d="M77.6399 18.5493L78.6689 24.9288C78.9731 24.3203 79.2683 23.7835 79.5904 23.2914C79.4473 22.173 79.6889 20.9382 80.2883 19.7214C80.2525 20.4909 80.3957 21.1798 80.7089 21.7345C81.3262 20.9472 82.0152 20.2224 82.731 19.5961C83.1157 19.2651 83.4915 18.9519 83.912 18.6656L83.921 18.6566C84.0015 17.9498 84.2431 17.243 84.601 16.5272C84.5741 17.073 84.6368 17.574 84.7799 18.0303C85.1289 17.7977 85.4868 17.574 85.8715 17.3682C87.0436 16.7151 88.2962 16.1424 89.9336 15.6235C89.0568 14.2456 87.5715 13.503 85.8446 13.3866C84.1178 13.2793 82.1136 13.9145 80.3689 15.2745C79.492 15.9545 78.7136 16.8493 78.0604 17.7977C77.9173 18.0482 77.7741 18.2988 77.6399 18.5493Z" fill="#75E24D"/>
<path d="M78.0599 17.7976C78.7131 16.8492 79.4915 15.9545 80.3683 15.2745C81.2988 14.5497 82.292 14.0397 83.2852 13.7266C83.1688 14.9166 82.5515 16.0797 82.1936 17.1892C81.7283 18.6476 81.1109 20.0434 80.592 21.4839C80.3594 20.9739 80.252 20.3834 80.2878 19.7213C79.6883 20.9381 79.4467 22.1729 79.5899 23.2913C79.2678 23.7834 78.9725 24.3202 78.6683 24.9287L77.6394 18.5492C77.7736 18.2987 77.9167 18.0481 78.0599 17.7976Z" fill="#62D333"/>
<path d="M69.4439 13.3788C71.1618 13.2715 73.175 13.9067 74.9197 15.2757C75.7965 15.9467 76.575 16.8415 77.2192 17.7988C77.8276 18.8188 78.3555 19.8836 78.5971 21.0378C79.1071 23.042 78.8655 25.1357 78.0334 26.6836H77.3981L76.3065 24.3125C76.1097 23.9457 75.9129 23.6146 75.7071 23.2925C75.8502 22.1741 75.6086 20.9394 74.9913 19.7225C75.036 20.492 74.8929 21.172 74.5886 21.7357C73.9623 20.9483 73.2823 20.2236 72.5576 19.5973C72.1729 19.2573 71.7971 18.953 71.3855 18.6667L71.3676 18.6578C71.2781 17.9599 71.0365 17.2441 70.6876 16.5283C70.7144 17.0741 70.6518 17.5751 70.5086 18.0315C70.1597 17.7988 69.8108 17.5751 69.426 17.3694C68.2539 16.7162 67.0013 16.1436 65.3639 15.6246C66.2318 14.2467 67.7081 13.4951 69.4439 13.3788Z" fill="#75E24D"/>
<path d="M72.835 17.9133C72.7813 16.4549 72.1102 14.6654 71.0186 13.4844C72.325 13.717 73.685 14.3075 74.9197 15.2738C75.7965 15.9449 76.575 16.8396 77.2192 17.797C77.8276 18.817 78.3555 19.8817 78.5971 21.036C79.1071 23.0402 78.8655 25.1338 78.0334 26.6817H77.3981L76.3065 24.3107C76.1097 23.9438 75.9129 23.6128 75.7071 23.2907C75.8502 22.1723 75.6086 20.9375 74.9913 19.7207C75.036 20.4902 74.8929 21.1702 74.5886 21.7338C73.9713 20.9554 73.3002 20.2486 72.5934 19.6312C72.7634 19.0944 72.8618 18.5307 72.835 17.9133Z" fill="#62D333"/>
<path d="M78.4624 28.1612C79.3213 29.0202 80.6276 29.1096 81.3882 28.3581C82.1397 27.6065 82.0592 26.2912 81.2003 25.4323C80.3413 24.5733 79.026 24.4838 78.2745 25.2444C77.5139 25.9959 77.6034 27.3023 78.4624 28.1612Z" fill="#575553"/>
<path d="M78.2664 27.925C78.3201 28.0055 78.3916 28.086 78.4632 28.1576C79.3222 29.0255 80.6285 29.115 81.389 28.3544C82.1406 27.6029 82.0601 26.2965 81.1922 25.4286C80.3332 24.5697 79.018 24.4892 78.2664 25.2408C78.2216 25.2855 78.1769 25.3302 78.159 25.3839C78.7406 24.9992 79.5995 25.1155 80.1811 25.706C80.8432 26.3681 80.9059 27.3702 80.3332 27.9429C79.7964 28.4797 78.9195 28.4618 78.2664 27.925Z" fill="#494643"/>
<path d="M74.1256 28.4029C74.9219 29.1992 76.1208 29.2797 76.8098 28.5818C77.4987 27.8929 77.4272 26.685 76.6308 25.8887C75.8345 25.0924 74.6356 25.0208 73.9377 25.7097C73.2487 26.4166 73.3293 27.6155 74.1256 28.4029Z" fill="#575553"/>
<path d="M73.9254 28.1968C73.9791 28.2684 74.0417 28.34 74.1133 28.4116C74.9096 29.1989 76.1086 29.2795 76.7975 28.5905C77.4954 27.9016 77.4149 26.6937 76.6275 25.8974C75.8312 25.11 74.6233 25.0295 73.9344 25.7184C73.8896 25.7721 73.8449 25.8168 73.8001 25.8795C74.3459 25.4589 75.1959 25.5574 75.7775 26.13C76.3949 26.7563 76.4575 27.6958 75.9117 28.2416C75.4017 28.7516 74.5338 28.7247 73.9254 28.1968Z" fill="#494643"/>
<path d="M78.642 26.6846C77.783 27.5436 76.4767 27.6331 75.7162 26.8815C74.9646 26.1299 75.0451 24.8146 75.9041 23.9557C76.763 23.0968 78.0783 23.0073 78.8299 23.7678C79.5904 24.5104 79.5009 25.8167 78.642 26.6846Z" fill="#494643"/>
<path d="M75.6292 26.7652C75.6471 26.801 75.6829 26.8457 75.7186 26.8815C76.4702 27.6331 77.7765 27.5525 78.6444 26.6846C79.5034 25.8257 79.5928 24.5194 78.8413 23.7678C78.0897 23.0073 76.7744 23.0968 75.9155 23.9557C75.8439 24.0273 75.7813 24.0989 75.7186 24.1704C76.3807 23.6157 77.3113 23.6067 77.8571 24.1525C78.4386 24.7341 78.3671 25.7541 77.696 26.4252C77.1055 27.0246 76.2286 27.1499 75.6292 26.7652Z" fill="#3D3935"/>
<path d="M55.9856 67.958C56.594 54.8501 53.9188 45.9474 50.3667 38.6464C50.984 38.2617 51.6104 37.8769 52.2188 37.4922C56.6477 44.4801 60.674 53.9732 61.7656 67.949H55.9856V67.958Z" fill="#CC9966"/>
<path d="M51.1988 38.1263C55.4667 45.0516 59.3051 54.3837 60.3609 67.9568H61.7656C60.674 53.9721 56.6388 44.4879 52.2188 37.5C51.8788 37.7147 51.5388 37.9205 51.1988 38.1263Z" fill="#C48A57"/>
<path d="M42.6605 48.2549C43.2779 49.597 44.3247 50.5543 45.7026 50.8317C45.6132 49.3643 45.6758 48.1922 45.8368 47.0559C45.8995 46.6891 45.9621 46.3401 46.0426 45.9822C45.64 46.0091 45.2195 46.1075 44.79 46.2954C45.2463 45.7854 45.7474 45.3828 46.2753 45.0964H46.2842C46.3916 44.667 46.5258 44.2643 46.6689 43.8617C46.9553 43.0922 47.3132 42.3317 47.7516 41.5801C47.2147 41.5175 46.6242 41.607 46.0247 41.8754C46.8121 41.0254 47.7247 40.4438 48.6553 40.2291C49.2995 39.3701 50.1047 38.4933 51.25 37.4375L48.4584 37.4733H48.4495C47.5905 37.6791 46.7495 38.0549 45.98 38.5917C45.13 39.1464 44.45 39.8891 43.8147 40.6854C43.2421 41.4996 42.7679 42.3943 42.4995 43.298C41.9268 45.1054 42.0432 46.9128 42.6605 48.2549Z" fill="#75E24D"/>
<path d="M44.2683 49.7938C44.8051 48.407 44.7425 46.9038 44.2683 45.508C44.0178 44.7833 43.7135 44.0586 43.3914 43.3607C43.2304 43.0117 43.0514 42.6896 42.8278 42.4033C43.0872 41.8128 43.4272 41.2312 43.803 40.6854C44.4383 39.898 45.1183 39.1464 45.9683 38.5917C46.7288 38.0549 47.5788 37.6791 48.4378 37.4733H48.4467L51.2383 37.4375C50.093 38.5022 49.2878 39.3701 48.6435 40.2291C47.713 40.4438 46.8004 41.0254 46.013 41.8754C46.6125 41.6159 47.203 41.5175 47.7399 41.5801C47.3014 42.3317 46.9435 43.1012 46.6572 43.8617C46.5051 44.2643 46.3709 44.667 46.2725 45.0964H46.2635C45.7446 45.3828 45.2435 45.7854 44.7783 46.2954C45.2167 46.1075 45.6283 46.0001 46.0309 45.9822C45.9504 46.3312 45.8878 46.6801 45.8251 47.0559C45.6641 48.2012 45.6014 49.3733 45.6909 50.8317C45.0914 50.7154 44.5635 50.4559 44.0983 50.107C44.1609 49.9996 44.2235 49.9012 44.2683 49.7938Z" fill="#62D333"/>
<path d="M37.96 43.277C38.9353 42.1765 39.8121 41.3981 40.7337 40.7091C41.0289 40.4854 41.3332 40.2886 41.6284 40.1007C41.3332 39.8323 40.9574 39.6086 40.5189 39.4296C41.1989 39.4028 41.8431 39.4654 42.4158 39.6354H42.4247C42.7916 39.4207 43.1763 39.2328 43.561 39.0449C44.3037 38.696 45.1 38.4186 45.941 38.2039C45.601 37.7654 45.1268 37.4165 44.5095 37.1839C45.6726 37.1302 46.7195 37.3717 47.5426 37.8728C48.5984 37.7117 49.8779 37.3986 51.4258 37.4612C50.5937 36.0296 48.7684 35.1707 46.8 34.8307C45.8068 34.616 44.7868 34.6607 43.7847 34.777C42.8095 34.956 41.8432 35.2423 41.011 35.6986C39.3379 36.5844 38.1389 37.9354 37.62 39.3133C37.1189 40.6912 37.1816 42.1139 37.96 43.277Z" fill="#75E24D"/>
<path d="M41.2795 37.775C41.5747 36.9876 41.8253 36.1555 41.7716 35.3234C42.4068 35.0639 43.0958 34.876 43.7847 34.7508C44.7868 34.6434 45.8068 34.5987 46.8 34.8045C48.7684 35.1534 50.5937 36.0034 51.4258 37.435C49.8779 37.3813 48.5984 37.6855 47.5426 37.8466C46.7195 37.3366 45.6726 37.1039 44.5095 37.1576C45.1268 37.3902 45.61 37.7481 45.941 38.1776C45.1 38.3923 44.3037 38.6787 43.561 39.0187C43.1674 39.1976 42.7916 39.3855 42.4247 39.6092H42.4158C41.87 39.4481 41.2616 39.3855 40.6174 39.4034C40.8679 38.8845 41.0737 38.3297 41.2795 37.775Z" fill="#62D333"/>
<path d="M64.2833 43.7094C63.3706 42.5552 62.5385 41.732 61.6527 40.9983C61.3664 40.7568 61.0801 40.542 60.7938 40.3362C61.1069 40.0768 61.4917 39.8799 61.939 39.7278C61.259 39.6652 60.6148 39.692 60.0333 39.8262H60.0243C59.6664 39.5846 59.2996 39.3789 58.9148 39.1731C58.1901 38.7883 57.4117 38.4573 56.5796 38.2068C56.9375 37.7952 57.4385 37.4641 58.0648 37.2673C56.9106 37.151 55.8459 37.3389 54.9959 37.7952C53.949 37.5715 52.759 37.4731 51.2111 37.4462C52.1238 36.0594 53.9132 35.0304 55.8996 34.7889C56.9017 34.6278 57.9127 34.7262 58.9148 34.8962C59.8722 35.1289 60.8296 35.4689 61.6348 35.961C63.2632 36.9273 64.3817 38.3499 64.8201 39.7546C65.2585 41.1773 65.1154 42.591 64.2833 43.7094Z" fill="#75E24D"/>
<path d="M55.9098 34.7889C56.9119 34.6278 57.9229 34.7262 58.9251 34.8962C59.8914 35.1289 60.8398 35.4689 61.6451 35.961C62.8261 36.6678 63.7387 37.6162 64.3203 38.6183C63.3987 38.4841 62.4414 38.5736 61.5198 38.6183C60.5356 38.672 59.5782 38.7525 58.6477 39.0389C58.0035 38.7168 57.3145 38.4215 56.5898 38.1978C56.9477 37.7862 57.4487 37.4552 58.075 37.2583C56.9208 37.142 55.8561 37.3299 55.0061 37.7862C53.9593 37.5625 52.7693 37.4641 51.2214 37.4373C52.1251 36.0683 53.9145 35.0304 55.9098 34.7889Z" fill="#62D333"/>
<path d="M51.2381 37.4165C52.3386 36.3607 53.2423 35.6001 54.1281 35.0096C54.3965 34.088 55.0228 33.2023 55.9265 32.4686C55.6223 33.0501 55.497 33.6407 55.5328 34.1865C56.3023 33.7749 57.0897 33.4617 57.8681 33.2201C58.2797 33.0949 58.6912 32.9786 59.1118 32.898H59.1207C59.4339 32.388 59.8723 31.9138 60.4002 31.4754C60.1854 31.9049 60.0602 32.3165 60.0244 32.7191C60.3733 32.6565 60.7312 32.6117 61.0981 32.5759C62.2433 32.4686 63.4154 32.4686 64.8828 32.6296C64.677 31.2428 63.7823 30.1512 62.467 29.4533C61.1518 28.7644 59.3712 28.5586 57.5281 29.0238C56.6154 29.2386 55.6939 29.668 54.8528 30.187C54.0297 30.7865 53.2423 31.4307 52.6428 32.2449C51.9807 33.0859 51.5154 34.0612 51.2828 35.0275" fill="#75E24D"/>
<path d="M51.2951 35.0373C51.5277 34.0621 51.993 33.0958 52.6551 32.2547C53.2456 31.4405 54.0419 30.7873 54.8651 30.1968C55.7061 29.6779 56.6277 29.2484 57.5403 29.0337C59.0435 28.6579 60.5109 28.7294 61.7188 29.15C60.0456 30.2416 58.5782 31.6105 57.603 33.3373C56.914 33.561 56.234 33.8384 55.563 34.1963C55.5182 33.6505 55.6524 33.06 55.9566 32.4784C55.053 33.2121 54.4266 34.0979 54.1582 35.0194C53.2724 35.601 52.3687 36.3705 51.2682 37.4263L51.2951 35.0373Z" fill="#62D333"/>
<path d="M48.7525 31.0298L51.5262 35.8077C51.5799 35.2261 51.6514 34.7072 51.7588 34.2151C51.3025 33.3651 51.1146 32.3093 51.222 31.1461C51.4277 31.7724 51.7499 32.2824 52.1704 32.6224C52.4209 31.8082 52.752 31.0119 53.1277 30.2961C53.3335 29.9114 53.5393 29.5445 53.7899 29.1956V29.1866C53.6377 28.5961 53.6109 27.9608 53.6825 27.2808C53.8256 27.7282 54.0314 28.104 54.282 28.4261C54.4877 28.1308 54.7025 27.8445 54.953 27.5672C55.6867 26.6903 56.5188 25.8493 57.6641 24.9277C56.5456 24.0956 55.132 23.9524 53.7183 24.3908C52.3046 24.8293 50.8999 25.9566 49.9246 27.5761C49.4325 28.3903 49.0835 29.3387 48.8509 30.2961C48.8241 30.5466 48.7883 30.7882 48.7525 31.0298Z" fill="#75E24D"/>
<path d="M48.8572 30.2948C49.0898 29.3374 49.4388 28.389 49.9309 27.5748C50.4498 26.7158 51.094 26 51.7919 25.4453C52.0604 26.4295 51.9262 27.5479 51.9798 28.55C52.0514 29.8564 51.9888 31.1627 52.0156 32.469C51.6756 32.129 51.4072 31.6906 51.2283 31.1537C51.1209 32.3079 51.3088 33.3727 51.7651 34.2227C51.6577 34.7148 51.5862 35.2337 51.5325 35.8153L48.7588 31.0374C48.7856 30.7869 48.8214 30.5453 48.8572 30.2948Z" fill="#62D333"/>
<path d="M40.6248 29.4092C41.9669 28.8008 43.7653 28.6934 45.5727 29.2482C46.4764 29.5166 47.3711 29.9908 48.1764 30.5545C48.9727 31.1808 49.7243 31.8787 50.27 32.7197C51.29 34.1603 51.7374 35.9139 51.5406 37.3992L51.0306 37.596L49.429 36.0392C49.1606 35.8066 48.9011 35.6008 48.6416 35.4039C48.4179 34.4645 47.8453 33.5518 46.9774 32.7734C47.2548 33.3729 47.3443 33.9634 47.2727 34.5003C46.53 34.0618 45.7695 33.695 45 33.4176C44.5885 33.2655 44.1948 33.1313 43.7743 33.0329L43.7653 33.0239C43.479 32.4871 43.0674 31.995 42.5664 31.5387C42.7543 31.9682 42.8527 32.3887 42.8795 32.7913C42.5306 32.7108 42.1816 32.6482 41.8058 32.5945C40.6695 32.4334 39.4974 32.3618 38.03 32.4424C38.3164 31.0824 39.2737 30.0355 40.6248 29.4092Z" fill="#75E24D"/>
<path d="M44.7227 31.9947C44.2395 30.8405 43.1479 29.6236 41.9132 29.0152C43.0227 28.8005 44.2932 28.8542 45.5727 29.2478C46.4764 29.5163 47.3711 29.9905 48.1764 30.5542C48.9727 31.1805 49.7243 31.8784 50.27 32.7194C51.29 34.16 51.7374 35.9136 51.5406 37.3989L51.0306 37.5957L49.429 36.0389C49.1606 35.8063 48.9011 35.6005 48.6416 35.4036C48.4179 34.4642 47.8453 33.5515 46.9774 32.7731C47.2548 33.3726 47.3443 33.9631 47.2727 34.5C46.5479 34.0705 45.7874 33.7036 45.0358 33.4352C45.0179 32.961 44.9285 32.4778 44.7227 31.9947Z" fill="#62D333"/>
<path d="M52.3479 38.4555C53.3053 38.885 54.37 38.5539 54.7458 37.7218C55.1126 36.8897 54.6474 35.8697 53.6989 35.4402C52.7416 35.0107 51.6768 35.3507 51.301 36.1829C50.9253 37.015 51.3995 38.026 52.3479 38.4555Z" fill="#575553"/>
<path d="M52.126 38.3291C52.1975 38.3738 52.2781 38.4185 52.3586 38.4543C53.307 38.8838 54.3807 38.5527 54.7565 37.7206C55.1233 36.8885 54.667 35.8685 53.7007 35.448C52.7523 35.0275 51.6786 35.3585 51.3028 36.1906C51.2849 36.2443 51.2581 36.2891 51.2581 36.3338C51.607 35.8506 52.3228 35.6806 52.976 35.9759C53.7097 36.298 54.0675 37.0854 53.7812 37.7117C53.5128 38.3022 52.806 38.5527 52.126 38.3291Z" fill="#494643"/>
<path d="M48.956 39.9782C49.8328 40.3719 50.817 40.0677 51.157 39.3072C51.497 38.5467 51.0676 37.5982 50.1907 37.2135C49.3139 36.8198 48.3297 37.133 47.9897 37.8935C47.6497 38.654 48.0791 39.5846 48.956 39.9782Z" fill="#575553"/>
<path d="M48.7413 39.872C48.804 39.9167 48.8756 39.9525 48.9561 39.9883C49.8329 40.373 50.8171 40.0688 51.1571 39.3083C51.5061 38.5478 51.0677 37.6083 50.1998 37.2057C49.3229 36.8209 48.3298 37.1251 47.9898 37.8857C47.9719 37.9393 47.945 37.993 47.9361 38.0557C48.2403 37.5546 48.9561 37.3757 49.5913 37.653C50.2803 37.9662 50.6113 38.6999 50.3429 39.2993C50.0835 39.863 49.3856 40.1046 48.7413 39.872Z" fill="#494643"/>
<path d="M52.0345 37.2222C51.605 38.1796 50.5939 38.6448 49.7618 38.278C48.9297 37.9111 48.5897 36.8375 49.0192 35.8801C49.4487 34.9227 50.4687 34.4575 51.3008 34.8332C52.1329 35.2001 52.4639 36.2648 52.0345 37.2222Z" fill="#494643"/>
<path d="M49.6545 38.2064C49.6813 38.2333 49.7261 38.2511 49.7619 38.269C50.594 38.6359 51.614 38.1796 52.0345 37.2133C52.455 36.2648 52.1329 35.1911 51.3008 34.8243C50.4687 34.4485 49.4487 34.9227 49.0192 35.8711C48.9834 35.9517 48.9566 36.0233 48.9297 36.1038C49.2876 35.4596 50.0303 35.1643 50.6298 35.4327C51.274 35.719 51.5245 36.5601 51.1934 37.2938C50.9161 37.9648 50.254 38.3317 49.6545 38.2064Z" fill="#3D3935"/>
<path d="M52.8101 68.6312H83.2938C83.6606 68.6312 83.9648 68.327 83.9648 67.9601C83.9648 67.5933 83.6606 67.2891 83.2938 67.2891H52.8191C52.4522 67.2891 52.148 67.5933 52.148 67.9601C52.148 68.327 52.4433 68.6312 52.8101 68.6312Z" fill="#3D3935"/>
<path d="M276.073 60.8056C275.465 47.6977 278.14 38.7951 281.692 31.4941C281.075 31.1093 280.448 30.7246 279.84 30.3398C275.411 37.3277 271.385 46.8209 270.293 60.7967H276.073V60.8056Z" fill="#CC9966"/>
<path d="M280.86 30.9779C276.592 37.9031 272.753 47.2352 271.698 60.8084H270.293C271.385 46.8237 275.42 37.3395 279.84 30.3516C280.18 30.5663 280.52 30.7721 280.86 30.9779Z" fill="#C48A57"/>
<path d="M289.406 41.1064C288.789 42.4485 287.742 43.4059 286.364 43.6833C286.453 42.2159 286.391 41.0438 286.23 39.9075C286.167 39.5406 286.104 39.1917 286.024 38.8338C286.426 38.8606 286.847 38.9591 287.276 39.147C286.82 38.637 286.319 38.2343 285.791 37.948H285.782C285.675 37.5185 285.541 37.1159 285.397 36.7133C285.111 35.9438 284.753 35.1833 284.315 34.4317C284.852 34.3691 285.442 34.4585 286.042 34.727C285.254 33.877 284.342 33.2954 283.411 33.0806C282.767 32.2217 281.962 31.3449 280.816 30.2891L283.608 30.3249H283.617C284.476 30.5306 285.317 30.9064 286.086 31.4433C286.936 31.998 287.616 32.7406 288.252 33.537C288.824 34.3512 289.299 35.2459 289.567 36.1496C290.14 37.957 290.023 39.7643 289.406 41.1064Z" fill="#75E24D"/>
<path d="M287.794 42.6454C287.257 41.2585 287.32 39.7554 287.794 38.3596C288.045 37.6349 288.349 36.9101 288.671 36.2122C288.832 35.8633 289.011 35.5412 289.235 35.2549C288.975 34.6643 288.635 34.0827 288.259 33.537C287.624 32.7496 286.944 31.998 286.094 31.4433C285.334 30.9064 284.484 30.5306 283.625 30.3249H283.616L280.824 30.2891C281.969 31.3538 282.775 32.2217 283.419 33.0806C284.349 33.2954 285.262 33.877 286.049 34.727C285.45 34.4675 284.859 34.3691 284.323 34.4317C284.761 35.1833 285.119 35.9527 285.405 36.7133C285.557 37.1159 285.692 37.5185 285.79 37.948H285.799C286.318 38.2343 286.819 38.637 287.284 39.147C286.846 38.9591 286.434 38.8517 286.032 38.8338C286.112 39.1827 286.175 39.5317 286.237 39.9075C286.398 41.0527 286.461 42.2249 286.372 43.6833C286.971 43.567 287.499 43.3075 287.964 42.9585C287.902 42.8512 287.839 42.7527 287.794 42.6454Z" fill="#62D333"/>
<path d="M294.103 36.1286C293.127 35.028 292.25 34.2496 291.329 33.5607C291.034 33.337 290.729 33.1402 290.434 32.9523C290.729 32.6838 291.105 32.4602 291.544 32.2812C290.864 32.2544 290.219 32.317 289.647 32.487H289.638C289.271 32.2723 288.886 32.0844 288.501 31.8965C287.759 31.5475 286.963 31.2702 286.121 31.0554C286.461 30.617 286.936 30.2681 287.553 30.0354C286.39 29.9817 285.343 30.2233 284.52 30.7244C283.464 30.5633 282.185 30.2502 280.637 30.3128C281.469 28.8812 283.294 28.0223 285.263 27.6823C286.256 27.4675 287.276 27.5123 288.278 27.6286C289.253 27.8075 290.219 28.0938 291.051 28.5502C292.725 29.4359 293.924 30.787 294.443 32.1649C294.944 33.5428 294.881 34.9654 294.103 36.1286Z" fill="#75E24D"/>
<path d="M290.783 30.6265C290.488 29.8392 290.237 29.0071 290.291 28.175C289.656 27.9155 288.967 27.7276 288.278 27.6023C287.276 27.495 286.256 27.4502 285.263 27.656C283.294 28.005 281.469 28.855 280.637 30.2865C282.185 30.2329 283.464 30.5371 284.52 30.6981C285.343 30.1881 286.39 29.9555 287.553 30.0092C286.936 30.2418 286.453 30.5997 286.121 31.0292C286.963 31.2439 287.759 31.5302 288.501 31.8702C288.895 32.0492 289.271 32.2371 289.638 32.4608H289.647C290.193 32.2997 290.801 32.2371 291.445 32.255C291.195 31.736 290.989 31.1813 290.783 30.6265Z" fill="#62D333"/>
<path d="M267.779 36.5609C268.692 35.4067 269.524 34.5836 270.41 33.8499C270.696 33.6083 270.982 33.3936 271.269 33.1878C270.956 32.9283 270.571 32.7315 270.123 32.5794C270.803 32.5167 271.448 32.5436 272.029 32.6778H272.038C272.396 32.4362 272.763 32.2304 273.148 32.0246C273.872 31.6399 274.651 31.3088 275.483 31.0583C275.125 30.6467 274.624 30.3157 273.998 30.1188C275.152 30.0025 276.217 30.1904 277.067 30.6467C278.113 30.4231 279.303 30.3246 280.851 30.2978C279.939 28.9109 278.149 27.882 276.163 27.6404C275.161 27.4794 274.15 27.5778 273.148 27.7478C272.19 27.9804 271.233 28.3204 270.428 28.8125C268.799 29.7788 267.681 31.2015 267.242 32.6062C266.804 34.0288 266.947 35.4425 267.779 36.5609Z" fill="#75E24D"/>
<path d="M276.153 27.6404C275.151 27.4794 274.14 27.5778 273.137 27.7478C272.171 27.9804 271.223 28.3204 270.417 28.8125C269.236 29.5194 268.324 30.4678 267.742 31.4699C268.664 31.3357 269.621 31.4252 270.543 31.4699C271.527 31.5236 272.484 31.6041 273.415 31.8904C274.059 31.5683 274.748 31.2731 275.473 31.0494C275.115 30.6378 274.614 30.3067 273.987 30.1099C275.142 29.9936 276.206 30.1815 277.056 30.6378C278.103 30.4141 279.293 30.3157 280.841 30.2888C279.937 28.9199 278.148 27.882 276.153 27.6404Z" fill="#62D333"/>
<path d="M280.824 30.268C279.724 29.2122 278.82 28.4517 277.934 27.8612C277.666 26.9396 277.04 26.0538 276.136 25.3201C276.44 25.9017 276.565 26.4922 276.53 27.038C275.76 26.6264 274.973 26.3133 274.194 26.0717C273.783 25.9464 273.371 25.8301 272.951 25.7496H272.942C272.629 25.2396 272.19 24.7654 271.662 24.327C271.877 24.7564 272.002 25.168 272.038 25.5707C271.689 25.508 271.331 25.4633 270.964 25.4275C269.819 25.3201 268.647 25.3201 267.18 25.4812C267.385 24.0943 268.28 23.0028 269.595 22.3049C270.911 21.6159 272.691 21.4101 274.534 21.8754C275.447 22.0901 276.369 22.5196 277.21 23.0386C278.033 23.638 278.82 24.2822 279.42 25.0964C280.082 25.9375 280.547 26.9128 280.78 27.8791" fill="#75E24D"/>
<path d="M280.771 27.8889C280.539 26.9136 280.073 25.9473 279.411 25.1063C278.821 24.2921 278.024 23.6389 277.201 23.0484C276.36 22.5294 275.439 22.1 274.526 21.8852C273.023 21.5094 271.556 21.581 270.348 22.0015C272.021 23.0931 273.488 24.4621 274.463 26.1889C275.152 26.4126 275.832 26.69 276.503 27.0479C276.548 26.5021 276.414 25.9115 276.11 25.33C277.013 26.0636 277.64 26.9494 277.908 27.871C278.794 28.4526 279.698 29.2221 280.798 30.2779L280.771 27.8889Z" fill="#62D333"/>
<path d="M283.31 23.8814L280.536 28.6593C280.483 28.0777 280.411 27.5587 280.304 27.0666C280.76 26.2166 280.948 25.1608 280.841 23.9977C280.635 24.624 280.313 25.134 279.892 25.474C279.642 24.6598 279.311 23.8635 278.935 23.1477C278.729 22.7629 278.523 22.3961 278.273 22.0471V22.0382C278.425 21.4477 278.452 20.8124 278.38 20.1324C278.237 20.5798 278.031 20.9556 277.781 21.2777C277.575 20.9824 277.36 20.6961 277.109 20.4187C276.376 19.5419 275.544 18.7008 274.398 17.7793C275.517 16.9471 276.931 16.804 278.344 17.2424C279.758 17.6808 281.163 18.8082 282.138 20.4277C282.63 21.2419 282.979 22.1903 283.212 23.1477C283.238 23.3982 283.274 23.6398 283.31 23.8814Z" fill="#75E24D"/>
<path d="M283.205 23.1463C282.973 22.189 282.624 21.2406 282.132 20.4263C281.613 19.5674 280.968 18.8516 280.271 18.2969C280.002 19.2811 280.136 20.3995 280.083 21.4016C280.011 22.7079 280.074 24.0142 280.047 25.3206C280.387 24.9806 280.655 24.5421 280.834 24.0053C280.942 25.1595 280.754 26.2242 280.297 27.0742C280.405 27.5663 280.476 28.0853 280.53 28.6669L283.304 23.889C283.277 23.6385 283.241 23.3969 283.205 23.1463Z" fill="#62D333"/>
<path d="M291.438 22.2608C290.096 21.6523 288.297 21.545 286.49 22.0997C285.586 22.3681 284.691 22.8423 283.886 23.406C283.09 24.0323 282.338 24.7302 281.792 25.5713C280.772 27.0118 280.325 28.7655 280.522 30.2508L281.032 30.4476L282.634 28.8908C282.902 28.6581 283.161 28.4523 283.421 28.2555C283.645 27.316 284.217 26.4034 285.085 25.625C284.808 26.2245 284.718 26.815 284.79 27.3518C285.532 26.9134 286.293 26.5466 287.062 26.2692C287.474 26.1171 287.868 25.9829 288.288 25.8845L288.297 25.8755C288.584 25.3387 288.995 24.8466 289.496 24.3902C289.308 24.8197 289.21 25.2402 289.183 25.6429C289.532 25.5623 289.881 25.4997 290.257 25.446C291.393 25.285 292.565 25.2134 294.032 25.2939C293.746 23.9339 292.789 22.8871 291.438 22.2608Z" fill="#75E24D"/>
<path d="M287.34 24.8463C287.823 23.692 288.915 22.4752 290.149 21.8668C289.04 21.652 287.769 21.7057 286.49 22.0994C285.586 22.3678 284.691 22.842 283.886 23.4057C283.09 24.032 282.338 24.7299 281.792 25.571C280.772 27.0115 280.325 28.7652 280.522 30.2505L281.032 30.4473L282.634 28.8905C282.902 28.6578 283.161 28.452 283.421 28.2552C283.645 27.3157 284.217 26.4031 285.085 25.6247C284.808 26.2241 284.718 26.8147 284.79 27.3515C285.515 26.922 286.275 26.5552 287.027 26.2868C287.045 25.8126 287.134 25.3294 287.34 24.8463Z" fill="#62D333"/>
<path d="M279.715 31.307C278.757 31.7365 277.693 31.4055 277.317 30.5734C276.95 29.7413 277.415 28.7213 278.364 28.2918C279.321 27.8623 280.386 28.2023 280.761 29.0344C281.137 29.8665 280.663 30.8776 279.715 31.307Z" fill="#575553"/>
<path d="M279.937 31.1806C279.865 31.2254 279.784 31.2701 279.704 31.3059C278.755 31.7354 277.682 31.4043 277.306 30.5722C276.939 29.7401 277.395 28.7201 278.362 28.2996C279.31 27.879 280.384 28.2101 280.76 29.0422C280.778 29.0959 280.804 29.1406 280.804 29.1854C280.455 28.7022 279.74 28.5322 279.087 28.8275C278.353 29.1496 277.995 29.9369 278.281 30.5633C278.55 31.1538 279.257 31.4043 279.937 31.1806Z" fill="#494643"/>
<path d="M283.107 32.8298C282.23 33.2235 281.245 32.9193 280.905 32.1587C280.565 31.3982 280.995 30.4498 281.872 30.0651C282.749 29.6714 283.733 29.9845 284.073 30.7451C284.413 31.5056 283.983 32.4361 283.107 32.8298Z" fill="#575553"/>
<path d="M283.321 32.7235C283.259 32.7683 283.187 32.8041 283.106 32.8399C282.23 33.2246 281.245 32.9204 280.905 32.1599C280.556 31.3993 280.995 30.4599 281.863 30.0572C282.74 29.6725 283.733 29.9767 284.073 30.7372C284.091 30.7909 284.117 30.8446 284.126 30.9072C283.822 30.4062 283.106 30.2272 282.471 30.5046C281.782 30.8178 281.451 31.5514 281.72 32.1509C281.979 32.7146 282.677 32.9562 283.321 32.7235Z" fill="#494643"/>
<path d="M280.028 30.0738C280.458 31.0311 281.469 31.4964 282.301 31.1295C283.133 30.7627 283.473 29.689 283.043 28.7316C282.614 27.7743 281.594 27.309 280.762 27.6848C279.93 28.0516 279.599 29.1164 280.028 30.0738Z" fill="#494643"/>
<path d="M282.408 31.058C282.381 31.0848 282.336 31.1027 282.301 31.1206C281.469 31.4874 280.449 31.0311 280.028 30.0648C279.607 29.1164 279.93 28.0427 280.762 27.6759C281.594 27.3001 282.614 27.7743 283.043 28.7227C283.079 28.8032 283.106 28.8748 283.133 28.9553C282.775 28.3111 282.032 28.0159 281.433 28.2843C280.789 28.5706 280.538 29.4117 280.869 30.1453C281.146 30.8164 281.809 31.1832 282.408 31.058Z" fill="#3D3935"/>
<g clip-path="url(#clip0_4648_28502)">
<path d="M196.58 38.3226H193.741L193.113 37.6442V10.4492L190.903 11.1443V19.1614L191.545 20.5807L190.903 22.0001V30.5162L191.545 31.9356L190.903 33.3549V38.3227H187.354C186.962 38.3227 186.645 38.6404 186.645 39.0324V39.742C186.645 40.134 186.962 40.4517 187.354 40.4517H197.29V39.0324C197.29 38.6404 196.972 38.3226 196.58 38.3226Z" fill="#DBD8DB"/>
<path d="M192.322 34.7763V38.3182H193.741V7.80859H190.902V11.1463C191.013 11.1793 191.123 11.2129 191.237 11.2382C191.876 11.3805 192.322 11.9584 192.322 12.6128V19.1634H190.902V22.0021C191.686 22.0021 192.322 22.6375 192.322 23.4215V30.5183H190.902V33.357C191.686 33.357 192.322 33.9924 192.322 34.7763Z" fill="#C9C5C9"/>
<path d="M192.322 9.93656C194.282 9.93656 195.87 8.34791 195.87 6.3882C195.87 4.4285 194.282 2.83984 192.322 2.83984C190.362 2.83984 188.773 4.4285 188.773 6.3882C188.773 8.34791 190.362 9.93656 192.322 9.93656Z" fill="#615260"/>
<path d="M192.324 8.51584C193.5 8.51584 194.453 7.56265 194.453 6.38683C194.453 5.21101 193.5 4.25781 192.324 4.25781C191.149 4.25781 190.195 5.21101 190.195 6.38683C190.195 7.56265 191.149 8.51584 192.324 8.51584Z" fill="#FF5F7A"/>
<path d="M197.29 38.3242H196.58C196.58 39.1081 195.945 39.7436 195.161 39.7436H186.645V40.4532C186.645 40.8452 186.962 41.1629 187.354 41.1629H197.29C197.682 41.1629 197.999 40.8452 197.999 40.4532V39.0339C197.999 38.642 197.682 38.3242 197.29 38.3242Z" fill="#C9C5C9"/>
<path d="M192.323 7.09903C192.715 7.09903 193.033 6.7813 193.033 6.38936C193.033 5.99742 192.715 5.67969 192.323 5.67969C191.931 5.67969 191.613 5.99742 191.613 6.38936C191.613 6.7813 191.931 7.09903 192.323 7.09903Z" fill="#FF7E92"/>
<path d="M163.935 38.3226H161.097L160.469 37.6442V10.4492L158.258 11.1443V19.1614L158.901 20.5807L158.258 22.0001V30.5162L158.901 31.9356L158.258 33.3549V38.3227H154.71C154.318 38.3227 154 38.6404 154 39.0324V39.742C154 40.134 154.318 40.4517 154.71 40.4517H164.645V39.0324C164.645 38.6404 164.327 38.3226 163.935 38.3226Z" fill="#DBD8DB"/>
<path d="M159.677 34.7763V38.3182H161.097V7.80859H158.258V11.1463C158.368 11.1793 158.479 11.2129 158.592 11.2382C159.231 11.3805 159.677 11.9584 159.677 12.6128V19.1634H158.258V22.0021C159.042 22.0021 159.677 22.6375 159.677 23.4215V30.5183H158.258V33.357C159.042 33.357 159.677 33.9924 159.677 34.7763Z" fill="#C9C5C9"/>
<path d="M159.677 9.93656C161.637 9.93656 163.226 8.34791 163.226 6.3882C163.226 4.4285 161.637 2.83984 159.677 2.83984C157.718 2.83984 156.129 4.4285 156.129 6.3882C156.129 8.34791 157.718 9.93656 159.677 9.93656Z" fill="#615260"/>
<path d="M159.676 8.51584C160.852 8.51584 161.805 7.56265 161.805 6.38683C161.805 5.21101 160.852 4.25781 159.676 4.25781C158.5 4.25781 157.547 5.21101 157.547 6.38683C157.547 7.56265 158.5 8.51584 159.676 8.51584Z" fill="#FF5F7A"/>
<path d="M155.093 19.9409H197.314V14.5L196.581 13.4844H193.742L189.838 14.7239L188.065 13.4844H182.387L178.219 14.7239L176.71 13.4844H171.032L167.3 14.7239L165.355 13.4844H159.677L155.709 15.6852L154 19.1618L155.093 19.9409Z" fill="#FFE077"/>
<path d="M196.582 13.4844V17.1317L198.001 14.9037C198.001 14.1198 197.366 13.4844 196.582 13.4844Z" fill="#FFD05B"/>
<path d="M155.419 20.5834H158.258L160.68 19.1641H154C154 19.9479 154.636 20.5834 155.419 20.5834Z" fill="#FFD05B"/>
<path d="M186.935 19.1641L186.645 20.5834H192.322L194.737 19.1641H186.935Z" fill="#FFD05B"/>
<path d="M175.58 19.1641L175.289 20.5834H180.966L183.382 19.1641H175.58Z" fill="#FFD05B"/>
<path d="M164.224 19.1641L163.934 20.5834H169.611L172.026 19.1641H164.224Z" fill="#FFD05B"/>
<path d="M165.357 13.4844L159.68 19.1618L161.666 19.8568L165.357 19.1618L171.035 13.4844H165.357Z" fill="#615260"/>
<path d="M159.677 19.1641L158.258 20.5834H163.935L165.355 19.1641H159.677Z" fill="#4E3D4D"/>
<path d="M155.419 13.4845C154.636 13.4845 154 14.1199 154 14.9038V19.1618L159.677 13.4844H155.419V13.4845Z" fill="#615260"/>
<path d="M197.998 19.1643V14.9062L192.32 20.5837H196.578C197.362 20.5836 197.998 19.9481 197.998 19.1643Z" fill="#615260"/>
<path d="M197.998 19.1643V14.9062L196.578 16.3256V17.7449C196.578 18.5288 195.943 19.1643 195.159 19.1643H193.74L192.32 20.5836H196.578C197.362 20.5836 197.998 19.9481 197.998 19.1643Z" fill="#4E3D4D"/>
<path d="M164.645 38.3242H163.935C163.935 39.1081 163.3 39.7436 162.516 39.7436H154V40.4532C154 40.8452 154.318 41.1629 154.71 41.1629H164.645C165.037 41.1629 165.355 40.8452 165.355 40.4532V39.0339C165.355 38.642 165.037 38.3242 164.645 38.3242Z" fill="#C9C5C9"/>
<path d="M159.678 7.09903C160.07 7.09903 160.388 6.7813 160.388 6.38936C160.388 5.99742 160.07 5.67969 159.678 5.67969C159.286 5.67969 158.969 5.99742 158.969 6.38936C158.969 6.7813 159.286 7.09903 159.678 7.09903Z" fill="#FF7E92"/>
<path d="M176.709 13.4844L171.031 19.1618L173.017 19.8568L176.709 19.1618L182.386 13.4844H176.709Z" fill="#615260"/>
<path d="M171.033 19.1641L169.613 20.5834H175.291L176.71 19.1641H171.033Z" fill="#4E3D4D"/>
<path d="M188.064 13.4844L182.387 19.1618L184.372 19.8568L188.064 19.1618L193.742 13.4844H188.064Z" fill="#615260"/>
<path d="M182.388 19.1641L180.969 20.5834H186.646L188.065 19.1641H182.388Z" fill="#4E3D4D"/>
<path d="M155.093 31.2963H197.314V25.8555L196.581 24.8398H193.742L189.838 26.0794L188.065 24.8398H182.387L178.219 26.0794L176.71 24.8398H171.032L167.3 26.0794L165.355 24.8398H159.677L155.709 27.0407L154 30.5173L155.093 31.2963Z" fill="#FFE077"/>
<path d="M196.582 24.8398V28.4872L198.001 26.2592C198.001 25.4753 197.366 24.8398 196.582 24.8398Z" fill="#FFD05B"/>
<path d="M155.419 31.935H158.258L160.68 30.5156H154C154 31.2995 154.636 31.935 155.419 31.935Z" fill="#FFD05B"/>
<path d="M186.935 30.5156L186.645 31.935H192.322L194.737 30.5156H186.935Z" fill="#FFD05B"/>
<path d="M175.58 30.5156L175.289 31.935H180.966L183.382 30.5156H175.58Z" fill="#FFD05B"/>
<path d="M164.224 30.5156L163.934 31.935H169.611L172.026 30.5156H164.224Z" fill="#FFD05B"/>
<path d="M165.357 24.8398L159.68 30.5173L161.666 31.2123L165.357 30.5173L171.035 24.8398H165.357Z" fill="#615260"/>
<path d="M159.677 30.5156L158.258 31.935H163.935L165.355 30.5156H159.677Z" fill="#4E3D4D"/>
<path d="M155.419 24.8399C154.636 24.8399 154 25.4754 154 26.2593V30.5173L159.677 24.8398H155.419V24.8399Z" fill="#615260"/>
<path d="M197.998 30.5158V26.2578L192.32 31.9353H196.578C197.362 31.9352 197.998 31.2997 197.998 30.5158Z" fill="#615260"/>
<path d="M197.998 30.5158V26.2578L196.578 27.6772V29.0965C196.578 29.8803 195.943 30.5158 195.159 30.5158H193.74L192.32 31.9352H196.578C197.362 31.9352 197.998 31.2997 197.998 30.5158Z" fill="#4E3D4D"/>
<path d="M176.709 24.8398L171.031 30.5173L173.017 31.2123L176.709 30.5173L182.386 24.8398H176.709Z" fill="#615260"/>
<path d="M171.033 30.5156L169.613 31.935H175.291L176.71 30.5156H171.033Z" fill="#4E3D4D"/>
<path d="M188.064 24.8398L182.387 30.5173L184.372 31.2123L188.064 30.5173L193.742 24.8398H188.064Z" fill="#615260"/>
<path d="M182.388 30.5156L180.969 31.935H186.646L188.065 30.5156H182.388Z" fill="#4E3D4D"/>
</g>
<path d="M351 141.5C351 113.785 332.51 87.2049 299.597 67.6073C266.685 48.0098 222.046 37 175.5 37C128.955 37 84.3154 48.0098 51.4028 67.6073C18.4901 87.2049 7.02818e-06 113.785 0 141.5L175.5 141.5H351Z" fill="url(#paint0_linear_4648_28502)"/>
<defs>
<linearGradient id="paint0_linear_4648_28502" x1="175.5" y1="37" x2="175.5" y2="141" gradientUnits="userSpaceOnUse">
<stop offset="0.0269942" stop-color="#88B7A0"/>
<stop offset="0.15" stop-color="#ABD2BF"/>
<stop offset="0.5" stop-color="white"/>
</linearGradient>
<clipPath id="clip0_4648_28502">
<rect width="44" height="44" fill="white" transform="translate(154)"/>
</clipPath>
</defs>
</svg>
